<?xml version="1.0"?>
<svg xmlns="http://www.w3.org/2000/svg" viewBox="0 0 50 50">
    <path style="line-height:normal;text-indent:0;text-align:start;text-decoration-line:none;text-decoration-style:solid;text-decoration-color:#000;text-transform:none;block-progression:tb;isolation:auto;mix-blend-mode:normal" d="M 13.599609 4 C 8.8620649 4 5 7.8620649 5 12.599609 L 5 31.400391 L 5 38.400391 C 5 43.137935 8.8620649 47 13.599609 47 L 36.400391 47 C 41.137935 47 45 43.137935 45 38.400391 L 45 30.599609 L 45 12.599609 C 45 7.8620649 41.137935 4 36.400391 4 L 13.599609 4 z M 13.599609 6 L 36.400391 6 C 40.056846 6 43 8.9431546 43 12.599609 L 43 30.599609 L 43 31.400391 C 43 35.056846 40.056846 38 36.400391 38 L 13.599609 38 C 9.9431546 38 7 35.056846 7 31.400391 L 7 30.599609 L 7 12.599609 C 7 8.9431546 9.9431546 6 13.599609 6 z M 25.052734 14 C 20.623734 14 20.226125 18.022 20.203125 19 L 22.076172 19 C 22.104172 18.326 22.416734 15.701172 25.052734 15.701172 C 27.520734 15.701172 27.861328 17.404859 27.861328 18.255859 C 27.861328 18.681859 27.606813 20.808594 24.882812 20.808594 L 24.117188 20.808594 L 24.117188 22.425781 C 24.457187 22.340781 24.797656 22.339844 25.222656 22.339844 C 25.647656 22.339844 28.542969 22.424359 28.542969 25.318359 C 28.542969 28.126359 25.563672 28.382812 25.138672 28.382812 C 23.629672 28.382812 21.881125 27.467 21.828125 25 L 19.947266 25 C 19.964266 26.227 20.338672 30 25.138672 30 C 26.074672 30 30.5 29.745375 30.5 25.234375 C 30.5 22.426375 28.627406 21.574297 27.691406 21.404297 L 27.691406 21.318359 C 28.287406 20.978359 29.818359 19.956922 29.818359 18.169922 C 29.818359 17.488922 29.648734 14 25.052734 14 z M 7 36.902344 C 8.5794631 38.792759 10.952573 40 13.599609 40 L 36.400391 40 C 39.047427 40 41.420537 38.792759 43 36.902344 L 43 38.400391 C 43 42.056846 40.056846 45 36.400391 45 L 13.599609 45 C 9.9431546 45 7 42.056846 7 38.400391 L 7 36.902344 z" font-weight="400" font-family="sans-serif" white-space="normal" overflow="visible"/>
</svg>
